<svg xmlns="http://www.w3.org/2000/svg" xmlns:xlink="http://www.w3.org/1999/xlink" viewBox="0 0 80 80" width="80" height="80" preserveAspectRatio="xMidYMid meet" style="width: 100%; height: 100%; transform: translate3d(0px, 0px, 0px); content-visibility: visible;"><defs><clipPath id="__lottie_element_917"><rect width="80" height="80" x="0" y="0"></rect></clipPath></defs><g clip-path="url(#__lottie_element_917)"><g style="display: block;" transform="matrix(1,0,0,1,40,40)" opacity="0.98"><path fill="rgb(109,204,91)" fill-opacity="1" d=" M0,-32 C17.66080093383789,-32 32,-17.66080093383789 32,0 C32,17.66080093383789 17.66080093383789,32 0,32 C-17.66080093383789,32 -32,17.66080093383789 -32,0 C-32,-17.66080093383789 -17.66080093383789,-32 0,-32z"></path></g><g transform="matrix(1,0,0,1,39.02199935913086,39.02199935913086)" opacity="1" style="display: block;"><g opacity="1" transform="matrix(1,0,0,1,0.9779999852180481,0.9779999852180481)"><path stroke-linecap="round" stroke-linejoin="round" fill-opacity="0" stroke="rgb(109,204,91)" stroke-opacity="1" stroke-width="3" d=" M0,-30 C16.55699920654297,-30 30,-16.55699920654297 30,0 C30,16.55699920654297 16.55699920654297,30 0,30 C-16.55699920654297,30 -30,16.55699920654297 -30,0 C-30,-16.55699920654297 -16.55699920654297,-30 0,-30z"></path></g></g><g style="display: block;" transform="matrix(1,0,0,1,40,40)" opacity="0.5220949999999888"><path fill="rgb(135,245,114)" fill-opacity="1" d=" M0,-32 C17.66080093383789,-32 32,-17.66080093383789 32,0 C32,17.66080093383789 17.66080093383789,32 0,32 C-17.66080093383789,32 -32,17.66080093383789 -32,0 C-32,-17.66080093383789 -17.66080093383789,-32 0,-32z"></path></g><g transform="matrix(1,0,0,1,41.3120002746582,34)" opacity="1" style="display: block;"><g opacity="1" transform="matrix(1,0,0,1,0,0)"><path stroke-linecap="round" stroke-linejoin="round" fill-opacity="0" stroke="rgb(255,255,255)" stroke-opacity="1" stroke-width="3" d=" M-15.75,8 C-15.75,8 -8,16 -8,16 C-8,16 13.125,-4 13.125,-4"></path></g></g></g></svg>
