<svg xmlns="http://www.w3.org/2000/svg" xmlns:xlink="http://www.w3.org/1999/xlink" viewBox="0 0 664 313" width="664" height="313"><path d="M 25.297,155.645 C 30.863,154.168 30.863,154.170 36.430,152.695" stroke-width="5.143" stroke="rgb(15,72,253)" fill="none" stroke-linecap="round"></path><path d="M 36.430,152.695 C 40.870,151.624 40.841,151.528 45.254,150.363" stroke-width="3.941" stroke="rgb(15,72,253)" fill="none" stroke-linecap="round"></path><path d="M 45.254,150.363 C 48.014,149.308 48.084,149.550 50.859,148.547" stroke-width="4.058" stroke="rgb(15,72,253)" fill="none" stroke-linecap="round"></path><path d="M 50.859,148.547 C 68.250,143.890 68.244,143.894 85.715,139.535" stroke-width="2.236" stroke="rgb(15,72,253)" fill="none" stroke-linecap="round"></path><path d="M 85.715,139.535 C 97.659,136.641 97.638,136.562 109.637,133.891" stroke-width="2.223" stroke="rgb(15,72,253)" fill="none" stroke-linecap="round"></path><path d="M 109.637,133.891 C 118.298,131.520 118.355,131.889 127.105,130.031" stroke-width="2.562" stroke="rgb(15,72,253)" fill="none" stroke-linecap="round"></path><path d="M 127.105,130.031 C 135.257,129.147 135.178,128.667 143.398,128.184" stroke-width="2.766" stroke="rgb(15,72,253)" fill="none" stroke-linecap="round"></path><path d="M 143.398,128.184 C 158.098,126.781 158.044,126.450 172.680,124.637" stroke-width="2.289" stroke="rgb(15,72,253)" fill="none" stroke-linecap="round"></path><path d="M 172.680,124.637 C 179.755,122.916 179.858,123.581 186.918,121.785" stroke-width="2.764" stroke="rgb(15,72,253)" fill="none" stroke-linecap="round"></path><path d="M 186.918,121.785 C 191.802,121.687 191.703,121.030 196.574,120.863" stroke-width="3.290" stroke="rgb(15,72,253)" fill="none" stroke-linecap="round"></path><path d="M 196.574,120.863 C 205.051,118.866 205.136,119.386 213.586,117.184" stroke-width="2.849" stroke="rgb(15,72,253)" fill="none" stroke-linecap="round"></path><path d="M 213.586,117.184 C 218.006,116.524 217.969,116.320 222.410,115.770" stroke-width="3.342" stroke="rgb(15,72,253)" fill="none" stroke-linecap="round"></path><path d="M 222.410,115.770 C 231.308,113.322 226.690,115.036 230.953,114.207" stroke-width="4.065" stroke="rgb(15,72,253)" fill="none" stroke-linecap="round"></path><path d="M 230.953,114.207 C 225.722,116.856 230.476,115.399 220.746,119.922" stroke-width="4.799" stroke="rgb(15,72,253)" fill="none" stroke-linecap="round"></path><path d="M 220.746,119.922 C 214.912,123.604 214.882,123.534 209.273,127.563" stroke-width="3.474" stroke="rgb(15,72,253)" fill="none" stroke-linecap="round"></path><path d="M 209.273,127.563 C 204.837,130.763 204.800,130.703 200.523,134.121" stroke-width="3.438" stroke="rgb(15,72,253)" fill="none" stroke-linecap="round"></path><path d="M 200.523,134.121 C 191.216,141.521 191.142,141.425 181.883,148.887" stroke-width="2.592" stroke="rgb(15,72,253)" fill="none" stroke-linecap="round"></path><path d="M 181.883,148.887 C 172.140,156.151 172.351,156.409 162.793,163.898" stroke-width="2.393" stroke="rgb(15,72,253)" fill="none" stroke-linecap="round"></path><path d="M 162.793,163.898 C 145.644,178.680 145.367,178.342 128.336,193.270" stroke-width="1.720" stroke="rgb(15,72,253)" fill="none" stroke-linecap="round"></path><path d="M 128.336,193.270 C 124.425,196.061 124.677,196.354 120.859,199.246" stroke-width="2.711" stroke="rgb(15,72,253)" fill="none" stroke-linecap="round"></path><path d="M 120.859,199.246 C 115.143,204.065 115.319,204.195 110.125,209.539" stroke-width="2.907" stroke="rgb(15,72,253)" fill="none" stroke-linecap="round"></path><path d="M 110.125,209.539 C 102.333,218.758 101.979,218.426 94.531,227.969" stroke-width="2.407" stroke="rgb(15,72,253)" fill="none" stroke-linecap="round"></path><path d="M 94.531,227.969 C 92.573,230.069 92.680,230.154 90.820,232.332" stroke-width="3.436" stroke="rgb(15,72,253)" fill="none" stroke-linecap="round"></path><path d="M 90.820,232.332 C 88.364,236.148 88.057,235.901 85.500,239.633" stroke-width="3.647" stroke="rgb(15,72,253)" fill="none" stroke-linecap="round"></path><path d="M 85.500,239.633 C 81.948,243.598 82.125,243.740 78.344,247.516" stroke-width="4.051" stroke="rgb(15,72,253)" fill="none" stroke-linecap="round"></path><path d="M 78.344,247.516 C 76.260,249.498 76.405,249.623 74.414,251.684" stroke-width="4.543" stroke="rgb(15,72,253)" fill="none" stroke-linecap="round"></path><path d="M 74.414,251.684 C 72.554,254.208 72.394,254.075 70.613,256.668" stroke-width="4.952" stroke="rgb(15,72,253)" fill="none" stroke-linecap="round"></path><path d="M 70.613,256.668 C 67.949,259.795 68.072,259.889 65.449,263.047" stroke-width="4.857" stroke="rgb(15,72,253)" fill="none" stroke-linecap="round"></path><path d="M 65.449,263.047 C 62.407,268.010 63.894,265.070 62.504,267.219" stroke-width="4.426" stroke="rgb(15,72,253)" fill="none" stroke-linecap="round"></path><path d="M 62.504,267.219 C 63.836,262.693 62.681,265.774 65.996,258.574" stroke-width="5.045" stroke="rgb(15,72,253)" fill="none" stroke-linecap="round"></path><path d="M 65.996,258.574 C 71.068,250.255 70.510,249.970 75.852,241.773" stroke-width="2.981" stroke="rgb(15,72,253)" fill="none" stroke-linecap="round"></path><path d="M 75.852,241.773 C 80.193,234.841 79.847,234.690 83.555,227.445" stroke-width="2.844" stroke="rgb(15,72,253)" fill="none" stroke-linecap="round"></path><path d="M 83.555,227.445 C 88.944,213.911 89.575,214.202 94.617,200.496" stroke-width="2.191" stroke="rgb(15,72,253)" fill="none" stroke-linecap="round"></path><path d="M 94.617,200.496 C 100.817,185.194 101.036,185.319 107.738,170.262" stroke-width="1.931" stroke="rgb(15,72,253)" fill="none" stroke-linecap="round"></path><path d="M 107.738,170.262 C 109.937,167.070 109.358,166.768 111.699,163.645" stroke-width="2.974" stroke="rgb(15,72,253)" fill="none" stroke-linecap="round"></path><path d="M 111.699,163.645 C 115.262,156.061 115.529,156.201 118.922,148.523" stroke-width="2.874" stroke="rgb(15,72,253)" fill="none" stroke-linecap="round"></path><path d="M 118.922,148.523 C 124.817,136.472 124.782,136.455 130.738,124.434" stroke-width="2.286" stroke="rgb(15,72,253)" fill="none" stroke-linecap="round"></path><path d="M 130.738,124.434 C 135.342,115.239 135.276,115.207 139.840,105.992" stroke-width="2.406" stroke="rgb(15,72,253)" fill="none" stroke-linecap="round"></path><path d="M 139.840,105.992 C 143.071,98.217 143.505,98.458 147.063,90.871" stroke-width="2.690" stroke="rgb(15,72,253)" fill="none" stroke-linecap="round"></path><path d="M 147.063,90.871 C 149.809,86.408 149.555,86.284 152.809,82.125" stroke-width="3.199" stroke="rgb(15,72,253)" fill="none" stroke-linecap="round"></path><path d="M 152.809,82.125 C 154.838,79.596 154.667,79.472 156.777,77.000" stroke-width="4.273" stroke="rgb(15,72,253)" fill="none" stroke-linecap="round"></path><path d="M 156.777,77.000 C 160.251,70.290 158.881,74.182 160.895,71.297" stroke-width="4.705" stroke="rgb(15,72,253)" fill="none" stroke-linecap="round"></path><path d="M 160.895,71.297 C 161.319,76.865 161.888,72.851 160.051,82.121" stroke-width="5.123" stroke="rgb(15,72,253)" fill="none" stroke-linecap="round"></path><path d="M 160.051,82.121 C 155.026,98.847 155.971,99.031 150.199,115.629" stroke-width="2.199" stroke="rgb(15,72,253)" fill="none" stroke-linecap="round"></path><path d="M 150.199,115.629 C 145.314,131.986 145.483,132.024 140.965,148.477" stroke-width="1.958" stroke="rgb(15,72,253)" fill="none" stroke-linecap="round"></path><path d="M 140.965,148.477 C 139.353,154.247 139.444,154.242 138.461,160.141" stroke-width="2.740" stroke="rgb(15,72,253)" fill="none" stroke-linecap="round"></path><path d="M 138.461,160.141 C 136.016,175.418 136.152,175.388 134.563,190.758" stroke-width="2.175" stroke="rgb(15,72,253)" fill="none" stroke-linecap="round"></path><path d="M 134.563,190.758 C 134.128,196.054 134.067,195.990 134.563,201.285" stroke-width="2.946" stroke="rgb(15,72,253)" fill="none" stroke-linecap="round"></path><path d="M 134.563,201.285 C 134.549,208.234 135.118,207.970 136.543,214.590" stroke-width="3.079" stroke="rgb(15,72,253)" fill="none" stroke-linecap="round"></path><path d="M 136.543,214.590 C 139.857,222.459 139.071,222.646 143.605,230.109" stroke-width="3.518" stroke="rgb(15,72,253)" fill="none" stroke-linecap="round"></path><path d="M 143.605,230.109 C 145.743,234.652 145.800,234.588 148.430,238.848" stroke-width="3.536" stroke="rgb(15,72,253)" fill="none" stroke-linecap="round"></path><path d="M 148.430,238.848 C 152.054,244.160 151.889,244.251 155.898,249.309" stroke-width="3.234" stroke="rgb(15,72,253)" fill="none" stroke-linecap="round"></path><path d="M 155.898,249.309 C 160.837,256.092 160.912,256.023 166.145,262.574" stroke-width="2.942" stroke="rgb(15,72,253)" fill="none" stroke-linecap="round"></path><path d="M 166.145,262.574 C 171.698,270.133 172.022,269.752 178.270,276.629" stroke-width="2.697" stroke="rgb(15,72,253)" fill="none" stroke-linecap="round"></path><path d="M 178.270,276.629 C 182.906,281.942 182.995,281.301 188.738,284.910" stroke-width="2.945" stroke="rgb(15,72,253)" fill="none" stroke-linecap="round"></path><path d="M 188.738,284.910 C 195.116,288.262 194.621,287.904 201.699,288.555" stroke-width="3.078" stroke="rgb(15,72,253)" fill="none" stroke-linecap="round"></path><path d="M 201.699,288.555 C 210.308,288.405 209.901,288.919 218.309,286.223" stroke-width="3.530" stroke="rgb(15,72,253)" fill="none" stroke-linecap="round"></path><path d="M 218.309,286.223 C 224.132,284.260 224.072,284.651 229.227,281.047" stroke-width="3.357" stroke="rgb(15,72,253)" fill="none" stroke-linecap="round"></path><path d="M 229.227,281.047 C 241.265,272.746 241.556,273.270 253.156,264.242" stroke-width="2.266" stroke="rgb(15,72,253)" fill="none" stroke-linecap="round"></path><path d="M 253.156,264.242 C 257.699,261.168 257.603,261.062 261.902,257.680" stroke-width="2.925" stroke="rgb(15,72,253)" fill="none" stroke-linecap="round"></path><path d="M 261.902,257.680 C 267.922,253.707 267.306,253.195 272.371,248.297" stroke-width="3.031" stroke="rgb(15,72,253)" fill="none" stroke-linecap="round"></path><path d="M 272.371,248.297 C 287.249,230.432 287.025,230.480 300.109,211.227" stroke-width="1.778" stroke="rgb(15,72,253)" fill="none" stroke-linecap="round"></path><path d="M 300.109,211.227 C 310.443,193.420 311.546,194.147 320.965,175.727" stroke-width="1.682" stroke="rgb(15,72,253)" fill="none" stroke-linecap="round"></path><path d="M 320.965,175.727 C 324.697,170.176 324.377,169.988 327.977,164.363" stroke-width="2.497" stroke="rgb(15,72,253)" fill="none" stroke-linecap="round"></path><path d="M 327.977,164.363 C 337.426,148.870 336.843,148.649 345.258,132.672" stroke-width="1.965" stroke="rgb(15,72,253)" fill="none" stroke-linecap="round"></path><path d="M 345.258,132.672 C 347.851,126.171 348.277,126.427 349.680,119.477" stroke-width="2.639" stroke="rgb(15,72,253)" fill="none" stroke-linecap="round"></path><path d="M 349.680,119.477 C 350.639,115.437 350.765,115.503 351.086,111.336" stroke-width="3.307" stroke="rgb(15,72,253)" fill="none" stroke-linecap="round"></path><path d="M 351.086,111.336 C 351.355,104.720 351.801,104.769 352.004,98.141" stroke-width="3.144" stroke="rgb(15,72,253)" fill="none" stroke-linecap="round"></path><path d="M 352.004,98.141 C 352.802,90.763 352.732,90.763 353.840,83.422" stroke-width="3.045" stroke="rgb(15,72,253)" fill="none" stroke-linecap="round"></path><path d="M 353.840,83.422 C 354.603,79.636 354.380,79.603 355.160,75.820" stroke-width="3.578" stroke="rgb(15,72,253)" fill="none" stroke-linecap="round"></path><path d="M 355.160,75.820 C 356.077,73.057 355.551,73.143 355.734,70.438" stroke-width="4.515" stroke="rgb(15,72,253)" fill="none" stroke-linecap="round"></path><path d="M 355.734,70.438 C 355.721,66.383 355.339,67.420 353.684,64.547" stroke-width="4.664" stroke="rgb(15,72,253)" fill="none" stroke-linecap="round"></path><path d="M 353.684,64.547 C 350.636,63.245 351.600,62.668 347.492,63.008" stroke-width="5.053" stroke="rgb(15,72,253)" fill="none" stroke-linecap="round"></path><path d="M 347.492,63.008 C 343.441,62.515 343.677,62.720 339.766,63.496" stroke-width="4.732" stroke="rgb(15,72,253)" fill="none" stroke-linecap="round"></path><path d="M 339.766,63.496 C 335.237,64.553 335.638,64.599 331.887,67.176" stroke-width="4.532" stroke="rgb(15,72,253)" fill="none" stroke-linecap="round"></path><path d="M 331.887,67.176 C 328.462,71.104 327.870,70.319 325.031,75.027" stroke-width="3.680" stroke="rgb(15,72,253)" fill="none" stroke-linecap="round"></path><path d="M 325.031,75.027 C 322.401,77.427 322.720,77.671 320.402,80.309" stroke-width="3.886" stroke="rgb(15,72,253)" fill="none" stroke-linecap="round"></path><path d="M 320.402,80.309 C 311.342,93.983 311.065,93.767 302.359,107.707" stroke-width="2.189" stroke="rgb(15,72,253)" fill="none" stroke-linecap="round"></path><path d="M 302.359,107.707 C 296.337,116.036 296.758,116.264 291.234,124.871" stroke-width="2.378" stroke="rgb(15,72,253)" fill="none" stroke-linecap="round"></path><path d="M 291.234,124.871 C 288.619,129.925 288.403,129.774 286.492,135.184" stroke-width="2.997" stroke="rgb(15,72,253)" fill="none" stroke-linecap="round"></path><path d="M 286.492,135.184 C 280.870,146.879 281.697,147.042 277.391,159.105" stroke-width="2.361" stroke="rgb(15,72,253)" fill="none" stroke-linecap="round"></path><path d="M 277.391,159.105 C 276.373,166.210 275.440,165.959 275.633,173.344" stroke-width="2.805" stroke="rgb(15,72,253)" fill="none" stroke-linecap="round"></path><path d="M 275.633,173.344 C 274.866,179.952 274.947,179.947 274.539,186.578" stroke-width="3.043" stroke="rgb(15,72,253)" fill="none" stroke-linecap="round"></path><path d="M 274.539,186.578 C 274.043,191.094 274.319,191.024 274.539,195.488" stroke-width="3.421" stroke="rgb(15,72,253)" fill="none" stroke-linecap="round"></path><path d="M 274.539,195.488 C 274.929,199.374 274.961,199.227 276.375,202.844" stroke-width="3.736" stroke="rgb(15,72,253)" fill="none" stroke-linecap="round"></path><path d="M 276.375,202.844 C 278.112,207.809 278.289,207.437 281.258,211.613" stroke-width="3.536" stroke="rgb(15,72,253)" fill="none" stroke-linecap="round"></path><path d="M 281.258,211.613 C 284.733,215.681 284.452,215.475 289.055,218.176" stroke-width="4.055" stroke="rgb(15,72,253)" fill="none" stroke-linecap="round"></path><path d="M 289.055,218.176 C 292.622,219.830 292.282,220.039 296.355,220.328" stroke-width="3.935" stroke="rgb(15,72,253)" fill="none" stroke-linecap="round"></path><path d="M 296.355,220.328 C 300.797,220.694 300.684,220.906 305.180,220.328" stroke-width="3.770" stroke="rgb(15,72,253)" fill="none" stroke-linecap="round"></path><path d="M 305.180,220.328 C 309.911,220.163 309.778,219.944 314.316,218.828" stroke-width="3.623" stroke="rgb(15,72,253)" fill="none" stroke-linecap="round"></path><path d="M 314.316,218.828 C 321.204,216.794 321.073,216.782 327.504,213.566" stroke-width="3.148" stroke="rgb(15,72,253)" fill="none" stroke-linecap="round"></path><path d="M 327.504,213.566 C 336.893,208.624 336.870,208.768 345.648,202.777" stroke-width="2.735" stroke="rgb(15,72,253)" fill="none" stroke-linecap="round"></path><path d="M 345.648,202.777 C 350.635,199.769 350.333,199.649 354.383,195.617" stroke-width="3.156" stroke="rgb(15,72,253)" fill="none" stroke-linecap="round"></path><path d="M 354.383,195.617 C 358.734,190.526 358.735,190.796 361.848,184.832" stroke-width="3.169" stroke="rgb(15,72,253)" fill="none" stroke-linecap="round"></path><path d="M 361.848,184.832 C 363.129,181.564 363.500,181.810 363.914,178.184" stroke-width="3.742" stroke="rgb(15,72,253)" fill="none" stroke-linecap="round"></path><path d="M 363.914,178.184 C 364.468,175.280 364.579,175.322 364.746,172.348" stroke-width="3.993" stroke="rgb(15,72,253)" fill="none" stroke-linecap="round"></path><path d="M 364.746,172.348 C 367.118,162.089 365.215,167.399 365.406,162.422" stroke-width="3.671" stroke="rgb(15,72,253)" fill="none" stroke-linecap="round"></path><path d="M 365.406,162.422 C 360.492,168.003 362.864,162.917 356.238,174.004" stroke-width="4.510" stroke="rgb(15,72,253)" fill="none" stroke-linecap="round"></path><path d="M 356.238,174.004 C 354.720,176.163 354.756,176.095 353.934,178.605" stroke-width="4.374" stroke="rgb(15,72,253)" fill="none" stroke-linecap="round"></path><path d="M 353.934,178.605 C 350.338,188.350 350.804,188.323 348.406,198.324" stroke-width="2.838" stroke="rgb(15,72,253)" fill="none" stroke-linecap="round"></path><path d="M 348.406,198.324 C 348.322,202.738 347.574,202.622 348.406,207.148" stroke-width="3.393" stroke="rgb(15,72,253)" fill="none" stroke-linecap="round"></path><path d="M 348.406,207.148 C 346.977,211.981 348.480,210.986 348.723,214.820" stroke-width="3.716" stroke="rgb(15,72,253)" fill="none" stroke-linecap="round"></path><path d="M 348.723,214.820 C 351.755,217.438 350.414,217.571 355.281,218.328" stroke-width="4.288" stroke="rgb(15,72,253)" fill="none" stroke-linecap="round"></path><path d="M 355.281,218.328 C 360.265,219.267 360.007,219.522 365.227,218.988" stroke-width="3.677" stroke="rgb(15,72,253)" fill="none" stroke-linecap="round"></path><path d="M 365.227,218.988 C 378.780,218.734 378.581,218.239 391.914,216.273" stroke-width="2.485" stroke="rgb(15,72,253)" fill="none" stroke-linecap="round"></path><path d="M 391.914,216.273 C 404.533,214.063 404.262,213.960 416.191,209.441" stroke-width="2.327" stroke="rgb(15,72,253)" fill="none" stroke-linecap="round"></path><path d="M 416.191,209.441 C 427.483,204.482 427.496,204.960 437.840,198.066" stroke-width="2.254" stroke="rgb(15,72,253)" fill="none" stroke-linecap="round"></path><path d="M 437.840,198.066 C 445.407,193.873 444.940,193.668 451.105,187.813" stroke-width="2.578" stroke="rgb(15,72,253)" fill="none" stroke-linecap="round"></path><path d="M 451.105,187.813 C 461.171,178.143 460.306,178.027 467.637,166.375" stroke-width="2.278" stroke="rgb(15,72,253)" fill="none" stroke-linecap="round"></path><path d="M 467.637,166.375 C 475.685,147.930 477.246,148.885 483.254,129.297" stroke-width="1.872" stroke="rgb(15,72,253)" fill="none" stroke-linecap="round"></path><path d="M 483.254,129.297 C 485.970,122.911 485.855,122.895 487.977,116.305" stroke-width="2.504" stroke="rgb(15,72,253)" fill="none" stroke-linecap="round"></path><path d="M 487.977,116.305 C 490.893,108.099 490.478,108.067 492.270,99.609" stroke-width="2.699" stroke="rgb(15,72,253)" fill="none" stroke-linecap="round"></path><path d="M 492.270,99.609 C 495.051,83.268 494.897,83.402 495.984,66.910" stroke-width="2.099" stroke="rgb(15,72,253)" fill="none" stroke-linecap="round"></path><path d="M 495.984,66.910 C 495.875,60.731 496.330,60.848 494.828,54.770" stroke-width="2.804" stroke="rgb(15,72,253)" fill="none" stroke-linecap="round"></path><path d="M 494.828,54.770 C 494.414,49.410 494.389,52.270 493.012,49.988" stroke-width="3.719" stroke="rgb(15,72,253)" fill="none" stroke-linecap="round"></path><path d="M 493.012,49.988 C 488.966,53.810 490.015,51.224 486.031,58.398" stroke-width="4.448" stroke="rgb(15,72,253)" fill="none" stroke-linecap="round"></path><path d="M 486.031,58.398 C 479.859,69.039 479.427,68.724 473.934,79.816" stroke-width="2.763" stroke="rgb(15,72,253)" fill="none" stroke-linecap="round"></path><path d="M 473.934,79.816 C 467.732,90.081 468.177,90.287 462.668,100.895" stroke-width="2.387" stroke="rgb(15,72,253)" fill="none" stroke-linecap="round"></path><path d="M 462.668,100.895 C 452.537,118.867 454.060,119.275 446.590,138.203" stroke-width="1.826" stroke="rgb(15,72,253)" fill="none" stroke-linecap="round"></path><path d="M 446.590,138.203 C 439.768,166.780 437.990,166.162 433.574,195.484" stroke-width="1.289" stroke="rgb(15,72,253)" fill="none" stroke-linecap="round"></path><path d="M 433.574,195.484 C 432.076,204.230 431.703,204.155 430.461,212.953" stroke-width="2.019" stroke="rgb(15,72,253)" fill="none" stroke-linecap="round"></path><path d="M 430.461,212.953 C 428.758,225.046 428.244,224.925 425.910,236.875" stroke-width="2.216" stroke="rgb(15,72,253)" fill="none" stroke-linecap="round"></path><path d="M 425.910,236.875 C 421.093,256.612 421.166,256.577 415.277,276.016" stroke-width="1.796" stroke="rgb(15,72,253)" fill="none" stroke-linecap="round"></path><path d="M 415.277,276.016 C 413.854,281.906 413.589,281.649 410.902,286.949" stroke-width="2.611" stroke="rgb(15,72,253)" fill="none" stroke-linecap="round"></path><path d="M 410.902,286.949 C 406.276,294.381 406.573,294.347 400.715,300.898" stroke-width="2.787" stroke="rgb(15,72,253)" fill="none" stroke-linecap="round"></path><path d="M 400.715,300.898 C 398.470,303.243 398.708,303.250 395.766,304.688" stroke-width="3.601" stroke="rgb(15,72,253)" fill="none" stroke-linecap="round"></path><path d="M 395.766,304.688 C 392.989,306.702 393.550,305.870 390.875,306.152" stroke-width="4.405" stroke="rgb(15,72,253)" fill="none" stroke-linecap="round"></path><path d="M 390.875,306.152 C 388.321,304.733 388.749,305.599 387.285,302.480" stroke-width="4.719" stroke="rgb(15,72,253)" fill="none" stroke-linecap="round"></path><path d="M 387.285,302.480 C 385.928,298.333 385.543,298.692 385.320,294.070" stroke-width="4.533" stroke="rgb(15,72,253)" fill="none" stroke-linecap="round"></path><path d="M 385.320,294.070 C 384.334,288.150 384.485,288.206 384.398,282.227" stroke-width="3.666" stroke="rgb(15,72,253)" fill="none" stroke-linecap="round"></path><path d="M 384.398,282.227 C 383.975,273.519 384.490,273.781 385.633,265.332" stroke-width="2.958" stroke="rgb(15,72,253)" fill="none" stroke-linecap="round"></path><path d="M 385.633,265.332 C 387.172,260.537 386.603,260.540 389.656,256.270" stroke-width="3.351" stroke="rgb(15,72,253)" fill="none" stroke-linecap="round"></path><path d="M 389.656,256.270 C 393.227,249.820 393.291,250.025 397.871,244.309" stroke-width="3.060" stroke="rgb(15,72,253)" fill="none" stroke-linecap="round"></path><path d="M 397.871,244.309 C 401.580,240.418 401.283,240.259 405.770,237.148" stroke-width="3.376" stroke="rgb(15,72,253)" fill="none" stroke-linecap="round"></path><path d="M 405.770,237.148 C 409.267,233.363 409.453,234.273 413.617,232.020" stroke-width="3.547" stroke="rgb(15,72,253)" fill="none" stroke-linecap="round"></path><path d="M 413.617,232.020 C 420.716,228.922 419.445,230.220 426.125,230.863" stroke-width="3.942" stroke="rgb(15,72,253)" fill="none" stroke-linecap="round"></path><path d="M 426.125,230.863 C 431.240,235.505 432.074,232.998 436.332,240.172" stroke-width="4.269" stroke="rgb(15,72,253)" fill="none" stroke-linecap="round"></path><path d="M 436.332,240.172 C 439.268,243.531 439.564,243.134 442.773,246.121" stroke-width="3.862" stroke="rgb(15,72,253)" fill="none" stroke-linecap="round"></path><path d="M 442.773,246.121 C 446.486,249.025 446.441,248.831 450.680,250.773" stroke-width="3.714" stroke="rgb(15,72,253)" fill="none" stroke-linecap="round"></path><path d="M 450.680,250.773 C 455.004,252.830 454.851,252.513 459.504,253.098" stroke-width="3.621" stroke="rgb(15,72,253)" fill="none" stroke-linecap="round"></path><path d="M 459.504,253.098 C 467.152,253.884 466.772,253.531 474.215,252.176" stroke-width="3.173" stroke="rgb(15,72,253)" fill="none" stroke-linecap="round"></path><path d="M 474.215,252.176 C 482.087,250.037 481.836,250.333 488.871,245.996" stroke-width="2.981" stroke="rgb(15,72,253)" fill="none" stroke-linecap="round"></path><path d="M 488.871,245.996 C 497.957,240.371 497.857,240.644 505.754,233.391" stroke-width="2.697" stroke="rgb(15,72,253)" fill="none" stroke-linecap="round"></path><path d="M 505.754,233.391 C 510.639,229.079 510.409,229.223 513.773,223.699" stroke-width="3.051" stroke="rgb(15,72,253)" fill="none" stroke-linecap="round"></path><path d="M 513.773,223.699 C 517.832,216.221 517.954,216.523 520.383,208.277" stroke-width="2.831" stroke="rgb(15,72,253)" fill="none" stroke-linecap="round"></path><path d="M 520.383,208.277 C 522.081,201.733 522.427,201.912 522.965,195.082" stroke-width="3.041" stroke="rgb(15,72,253)" fill="none" stroke-linecap="round"></path><path d="M 522.965,195.082 C 524.753,181.323 523.788,188.893 523.797,182.598" stroke-width="3.121" stroke="rgb(15,72,253)" fill="none" stroke-linecap="round"></path><path d="M 523.797,182.598 C 520.561,192.071 522.271,184.630 518.000,201.695" stroke-width="4.003" stroke="rgb(15,72,253)" fill="none" stroke-linecap="round"></path><path d="M 518.000,201.695 C 517.474,204.599 517.244,204.536 517.164,207.527" stroke-width="4.124" stroke="rgb(15,72,253)" fill="none" stroke-linecap="round"></path><path d="M 517.164,207.527 C 515.782,212.663 516.638,212.488 516.328,217.473" stroke-width="3.639" stroke="rgb(15,72,253)" fill="none" stroke-linecap="round"></path><path d="M 516.328,217.473 C 516.358,222.089 516.684,220.608 518.969,223.418" stroke-width="3.929" stroke="rgb(15,72,253)" fill="none" stroke-linecap="round"></path><path d="M 518.969,223.418 C 526.169,226.267 524.678,226.324 532.969,225.941" stroke-width="4.000" stroke="rgb(15,72,253)" fill="none" stroke-linecap="round"></path><path d="M 532.969,225.941 C 537.548,225.047 537.062,225.745 540.754,222.375" stroke-width="3.815" stroke="rgb(15,72,253)" fill="none" stroke-linecap="round"></path><path d="M 540.754,222.375 C 544.946,218.067 545.188,218.680 548.250,213.207" stroke-width="3.388" stroke="rgb(15,72,253)" fill="none" stroke-linecap="round"></path><path d="M 548.250,213.207 C 549.552,210.411 549.971,210.676 550.805,207.594" stroke-width="3.874" stroke="rgb(15,72,253)" fill="none" stroke-linecap="round"></path><path d="M 550.805,207.594 C 552.902,198.933 553.268,202.054 555.684,196.492" stroke-width="3.376" stroke="rgb(15,72,253)" fill="none" stroke-linecap="round"></path><path d="M 555.684,196.492 C 556.684,199.331 556.864,195.456 558.730,200.641" stroke-width="4.605" stroke="rgb(15,72,253)" fill="none" stroke-linecap="round"></path><path d="M 558.730,200.641 C 561.636,201.926 561.161,202.196 564.637,202.223" stroke-width="5.106" stroke="rgb(15,72,253)" fill="none" stroke-linecap="round"></path><path d="M 564.637,202.223 C 567.822,202.715 567.560,202.512 570.578,201.813" stroke-width="5.208" stroke="rgb(15,72,253)" fill="none" stroke-linecap="round"></path><path d="M 570.578,201.813 C 573.399,199.589 573.791,200.760 576.574,198.313" stroke-width="5.008" stroke="rgb(15,72,253)" fill="none" stroke-linecap="round"></path><path d="M 403.680,128.070 C 400.812,129.373 400.828,129.406 397.977,130.742" stroke-width="5.390" stroke="rgb(15,72,253)" fill="none" stroke-linecap="round"></path><path d="M 397.977,130.742 C 395.082,131.710 395.312,132.029 392.680,133.383" stroke-width="4.524" stroke="rgb(15,72,253)" fill="none" stroke-linecap="round"></path><path d="M 392.680,133.383 C 389.771,134.982 390.299,135.040 388.410,137.402" stroke-width="4.231" stroke="rgb(15,72,253)" fill="none" stroke-linecap="round"></path><path d="M 388.410,137.402 C 386.574,140.748 387.230,139.501 387.598,142.422" stroke-width="4.813" stroke="rgb(15,72,253)" fill="none" stroke-linecap="round"></path><path d="M 387.598,142.422 C 390.108,144.259 388.673,144.180 392.609,144.266" stroke-width="5.088" stroke="rgb(15,72,253)" fill="none" stroke-linecap="round"></path><path d="M 392.609,144.266 C 395.300,143.809 395.012,144.272 397.406,142.449" stroke-width="4.526" stroke="rgb(15,72,253)" fill="none" stroke-linecap="round"></path></svg>
